<svg xmlns="http://www.w3.org/2000/svg" viewBox="0 0 260 260"><defs><style>.cls-1{fill:none;}.cls-2{fill:#231f20;stroke:#231f20;stroke-miterlimit:10;}</style></defs><g id="Layer_2" data-name="Layer 2"><g id="Layer_1-2" data-name="Layer 1"><rect class="cls-1" width="260" height="260"/><path class="cls-2" d="M169.75,166.43c0-12.42-13-28.84-19-33,0,0-56.18-28.9-61.61-31.59-2.87-2-8.08-.44-12,1.33V24.8C55,36.68,53.15,60.32,53.15,60.32v126a35.26,35.26,0,0,0,.22,4.11c1.6,13.3,9.75,25.2,18.78,31.35,4.67,2.1,61.72,37.63,65.73,36.55,2.38,0,10.15-3.67,13.5-5.86,6.73-4.67,19.79-9.54,18.36-16.78C169.74,223.92,169.75,190.19,169.75,166.43ZM147.37,238c-79-44.43-70.71-31.72-70.28-121.86C162.49,158.39,145.85,152.37,147.37,238Z"/><path class="cls-2" d="M209.42,145.76v65.69s-.69,6.75-4.83,9.27S181.82,234,181.82,234l.16-70.52c.3-17.74-10.79-34.32-26.55-42.07-8.59-2.46-55.67-33.53-64.75-26.57V16.67L115.16,2.75V80.48c5.9-2.4,6.82-6.57,16.62-3.37,4.55,2.09,39.11,19.93,53,27.13C199.31,112.17,209.36,129,209.42,145.76Z"/><path class="cls-2" d="M147.47,193.73l-.06,28.41C88.61,190.47,88.75,190,90.2,123c9.49,5.13,17.34,8.38,24.72,13.43-1.09,18.42,2.26,36.29,16,47.16Z"/></g></g></svg>