<svg xmlns="http://www.w3.org/2000/svg" viewBox="0 0 710.79 269.29"><defs><style>.cls-1{fill:none;}.cls-2,.cls-3{fill:#1d1d1b;}.cls-2{stroke:#1d1d1b;stroke-miterlimit:10;}.cls-3{font-size:203px;font-family:Bauhaus93, "Bauhaus 93";}</style></defs><g id="Layer_2" data-name="Layer 2"><g id="Layer_1-2" data-name="Layer 1"><rect class="cls-1" width="708.66" height="269.29"/><path class="cls-2" d="M120.57,170.27c0-12.42-13-28.84-19-33,0,0-56.18-28.9-61.61-31.59-2.87-2-8.08-.44-12,1.33V28.64C5.8,40.52,4,64.16,4,64.16v126a35.26,35.26,0,0,0,.22,4.11c1.6,13.3,9.75,25.2,18.78,31.35,4.66,2.09,61.72,37.63,65.73,36.55,2.37,0,10.14-3.67,13.5-5.86,6.72-4.67,19.79-9.54,18.36-16.78C120.56,227.76,120.57,194,120.57,170.27ZM98.19,241.85c-79-44.43-70.72-31.72-70.28-121.86C113.3,162.22,96.66,156.21,98.19,241.85Z"/><path class="cls-2" d="M160.24,149.6v65.69s-.69,6.75-4.83,9.27-22.77,13.23-22.77,13.23l.16-70.52c.29-17.74-10.8-34.32-26.55-42.07-8.6-2.46-55.68-33.53-64.75-26.57V20.51L66,6.59V84.32c5.89-2.4,6.81-6.57,16.62-3.37,4.55,2.09,39.11,19.93,53,27.13C150.12,116,160.17,132.87,160.24,149.6Z"/><path class="cls-2" d="M98.29,197.57,98.23,226C39.42,194.31,39.56,193.81,41,126.84c9.48,5.13,17.33,8.38,24.72,13.43-1.1,18.42,2.25,36.28,16,47.16Z"/><text class="cls-3" transform="translate(170.92 216.5)">asgco</text></g></g></svg>